<?xml version="1.0" encoding="utf-8"?>
<svg viewBox="0 0 500 500" xmlns="http://www.w3.org/2000/svg" xmlns:xlink="http://www.w3.org/1999/xlink">
  <defs>
    <pattern id="pattern-0-0" patternTransform="matrix(1, 0, 0, 1, 225.591827, 187.043966)" xlink:href="#pattern-0"/>
    <pattern x="0" y="0" width="25" height="25" patternUnits="userSpaceOnUse" viewBox="0 0 100 100" id="pattern-0">
      <rect x="0" y="0" width="50" height="100" style="fill: black;"/>
    </pattern>
    <pattern id="pattern-0-1" patternTransform="matrix(1, 0, 0, 1, 161.387159, 220.238617)" xlink:href="#pattern-0"/>
    <pattern id="pattern-0-2" patternTransform="matrix(1, 0, 0, 1, 161.387146, 220.235853)" xlink:href="#pattern-0"/>
  </defs>
  <path d="M 28.572 8.534 L 341.228 8.534 C 363.544 8.534 387.941 29.981 395.718 56.434 L 498.374 405.719 C 506.15 432.173 494.361 453.617 472.04 453.617 L 159.386 453.617 C 137.069 453.617 112.675 432.173 104.899 405.719 L 2.241 56.434 C -5.535 29.981 6.255 8.534 28.572 8.534 Z" style="stroke-width: 9px; stroke-linecap: round; stroke-miterlimit: 50; stroke: rgb(255, 255, 255); fill: rgb(245, 97, 97);" transform="matrix(1, -0.000858, 0.000858, 1, -0.198171, 0.214849)"/>
  <path d="M 79.448 31.786 L 455.395 31.786 C 482.228 31.786 502.36 51.973 500.358 76.871 L 473.896 405.626 C 471.892 430.525 448.515 450.709 421.676 450.709 L 45.731 450.709 C 18.896 450.709 -1.234 430.525 0.77 405.626 L 27.23 76.871 C 29.233 51.973 52.613 31.786 79.448 31.786 Z" style="stroke-width: 9px; stroke-linecap: round; stroke-miterlimit: 50; stroke: rgb(255, 255, 255); fill: rgb(245, 97, 235);" transform="matrix(1, -0.000858, 0.000858, 1, -0.206898, 0.215073)"/>
  <path d="M 77.684 40.272 L 424.807 40.272 C 449.585 40.272 469.674 58.635 469.674 81.286 L 469.674 380.378 C 469.674 403.031 449.585 421.394 424.807 421.394 L 77.684 421.394 C 52.904 421.394 32.818 403.031 32.818 380.378 L 32.818 81.286 C 32.818 58.635 52.904 40.272 77.684 40.272 Z" style="stroke-width: 9px; stroke-linecap: round; stroke-miterlimit: 50; stroke: rgb(255, 255, 255);"/>
  <text style="fill: rgb(255, 3, 3); fill-rule: evenodd; font-family: &quot;Akaya Telivigala&quot;; font-size: 16.2px; font-weight: 700; paint-order: fill; text-transform: capitalize; white-space: pre;" transform="matrix(5.71404, 0.000048, -0.000089, 10.308187, -1117.621582, -1803.676514)"><tspan x="200.743" y="204.764"> </tspan></text>
  <path transform="matrix(1, 0, 0, 1, -145.686386, -106.01368)" style="fill: rgb(51, 51, 51); white-space: pre;"/>
  <path style="fill: rgb(51, 51, 51); white-space: pre;"/>
  <path style="fill: rgb(51, 51, 51); white-space: pre;"/>
  <path style="fill: rgb(51, 51, 51); white-space: pre;"/>
  <text style="fill: url(#pattern-0-0); fill-rule: evenodd; font-family: &quot;Akaya Telivigala&quot;; font-size: 16.2px; font-weight: 700; paint-order: fill; text-transform: capitalize; white-space: pre;" transform="matrix(5.71404, 0.000048, -0.000089, 10.308187, -1120.274658, -1804.406494)"><tspan x="200.743" y="204.764"> </tspan></text>
  <path style="fill: rgb(51, 51, 51); white-space: pre;"/>
  <path style="fill: rgb(51, 51, 51); white-space: pre;"/>
  <path d="M 171.671 238.115 Q 171.476 238.115 171.274 238.05 Q 171.071 237.985 170.934 237.742 Q 170.796 237.499 170.796 236.997 Q 170.796 236.673 170.861 236.147 Q 170.926 235.62 171.039 234.778 Q 171.12 234.243 171.225 233.344 Q 171.331 232.445 171.331 231.457 Q 171.331 231.019 171.298 230.525 Q 171.266 230.031 171.169 229.626 Q 170.974 229.675 170.877 229.675 Q 170.78 229.675 170.731 229.618 Q 170.683 229.561 170.683 229.399 Q 170.683 229.075 170.755 228.743 Q 170.828 228.411 170.99 228.184 Q 171.152 227.958 171.371 227.86 Q 171.59 227.763 171.833 227.731 Q 172.238 227.682 172.861 227.642 Q 173.485 227.601 174.174 227.569 Q 174.862 227.536 175.429 227.536 Q 176.191 227.536 176.555 227.553 Q 176.92 227.569 177.114 227.601 Q 177.535 227.666 177.535 228.055 Q 177.535 228.33 177.43 228.549 Q 177.325 228.768 177.179 228.946 Q 177.001 229.205 176.798 229.31 Q 176.596 229.416 176.272 229.383 Q 175.996 229.351 175.518 229.327 Q 175.04 229.302 174.425 229.302 Q 174.166 229.302 173.744 229.318 Q 173.323 229.335 172.853 229.367 Q 172.837 229.918 172.756 230.623 Q 172.675 231.327 172.578 232.056 Q 173.015 232.024 173.631 232 Q 174.247 231.975 174.895 231.959 Q 175.543 231.943 176.045 231.943 Q 176.336 231.943 176.466 232.016 Q 176.596 232.089 176.596 232.332 Q 176.596 232.607 176.458 232.923 Q 176.32 233.239 176.101 233.466 Q 175.883 233.692 175.64 233.676 Q 175.235 233.644 174.498 233.628 Q 173.761 233.611 172.951 233.611 L 172.432 233.611 Q 172.4 233.968 172.375 234.316 Q 172.351 234.664 172.351 234.956 Q 172.351 235.523 172.465 235.952 Q 172.578 236.382 172.902 236.689 Q 173.113 236.9 173.113 237.175 Q 173.113 237.532 172.708 237.823 Q 172.303 238.115 171.671 238.115 Z" transform="matrix(28.978041, 0.277283, -0.204258, 21.629477, -4841.017578, -4848.420898)" style="fill: rgb(76, 66, 255); paint-order: stroke; stroke-linecap: round; stroke-linejoin: round; stroke-width: 1.86857px; white-space: pre;"/>
  <path transform="matrix(0.976295, 0, 0, 0.982742, 79.552597, -100.939232)" style="fill: rgb(51, 51, 51); white-space: pre;"/>
  <path transform="matrix(1, 0, 0, 1, -145.686386, -106.01368)" style="fill: rgb(51, 51, 51); white-space: pre;"/>
  <path d="M 171.671 238.115 Q 171.476 238.115 171.274 238.05 Q 171.071 237.985 170.934 237.742 Q 170.796 237.499 170.796 236.997 Q 170.796 236.673 170.861 236.147 Q 170.926 235.62 171.039 234.778 Q 171.12 234.243 171.225 233.344 Q 171.331 232.445 171.331 231.457 Q 171.331 231.019 171.298 230.525 Q 171.266 230.031 171.169 229.626 Q 170.974 229.675 170.877 229.675 Q 170.78 229.675 170.731 229.618 Q 170.683 229.561 170.683 229.399 Q 170.683 229.075 170.755 228.743 Q 170.828 228.411 170.99 228.184 Q 171.152 227.958 171.371 227.86 Q 171.59 227.763 171.833 227.731 Q 172.238 227.682 172.861 227.642 Q 173.485 227.601 174.174 227.569 Q 174.862 227.536 175.429 227.536 Q 176.191 227.536 176.555 227.553 Q 176.92 227.569 177.114 227.601 Q 177.535 227.666 177.535 228.055 Q 177.535 228.33 177.43 228.549 Q 177.325 228.768 177.179 228.946 Q 177.001 229.205 176.798 229.31 Q 176.596 229.416 176.272 229.383 Q 175.996 229.351 175.518 229.327 Q 175.04 229.302 174.425 229.302 Q 174.166 229.302 173.744 229.318 Q 173.323 229.335 172.853 229.367 Q 172.837 229.918 172.756 230.623 Q 172.675 231.327 172.578 232.056 Q 173.015 232.024 173.631 232 Q 174.247 231.975 174.895 231.959 Q 175.543 231.943 176.045 231.943 Q 176.336 231.943 176.466 232.016 Q 176.596 232.089 176.596 232.332 Q 176.596 232.607 176.458 232.923 Q 176.32 233.239 176.101 233.466 Q 175.883 233.692 175.64 233.676 Q 175.235 233.644 174.498 233.628 Q 173.761 233.611 172.951 233.611 L 172.432 233.611 Q 172.4 233.968 172.375 234.316 Q 172.351 234.664 172.351 234.956 Q 172.351 235.523 172.465 235.952 Q 172.578 236.382 172.902 236.689 Q 173.113 236.9 173.113 237.175 Q 173.113 237.532 172.708 237.823 Q 172.303 238.115 171.671 238.115 Z" transform="matrix(26.878189, 0.257191, -0.202314, 21.423637, -4273.403809, -4807.333984)" style="fill: rgb(84, 255, 71); stroke-linecap: round; stroke-linejoin: round; stroke-width: 1.86857px; white-space: pre;"/>
  <path style="fill: rgb(51, 51, 51); white-space: pre;"/>
  <path style="fill: rgb(51, 51, 51); white-space: pre;"/>
  <path d="M 171.671 238.115 Q 171.476 238.115 171.274 238.05 Q 171.071 237.985 170.934 237.742 Q 170.796 237.499 170.796 236.997 Q 170.796 236.673 170.861 236.147 Q 170.926 235.62 171.039 234.778 Q 171.12 234.243 171.225 233.344 Q 171.331 232.445 171.331 231.457 Q 171.331 231.019 171.298 230.525 Q 171.266 230.031 171.169 229.626 Q 170.974 229.675 170.877 229.675 Q 170.78 229.675 170.731 229.618 Q 170.683 229.561 170.683 229.399 Q 170.683 229.075 170.755 228.743 Q 170.828 228.411 170.99 228.184 Q 171.152 227.958 171.371 227.86 Q 171.59 227.763 171.833 227.731 Q 172.238 227.682 172.861 227.642 Q 173.485 227.601 174.174 227.569 Q 174.862 227.536 175.429 227.536 Q 176.191 227.536 176.555 227.553 Q 176.92 227.569 177.114 227.601 Q 177.535 227.666 177.535 228.055 Q 177.535 228.33 177.43 228.549 Q 177.325 228.768 177.179 228.946 Q 177.001 229.205 176.798 229.31 Q 176.596 229.416 176.272 229.383 Q 175.996 229.351 175.518 229.327 Q 175.04 229.302 174.425 229.302 Q 174.166 229.302 173.744 229.318 Q 173.323 229.335 172.853 229.367 Q 172.837 229.918 172.756 230.623 Q 172.675 231.327 172.578 232.056 Q 173.015 232.024 173.631 232 Q 174.247 231.975 174.895 231.959 Q 175.543 231.943 176.045 231.943 Q 176.336 231.943 176.466 232.016 Q 176.596 232.089 176.596 232.332 Q 176.596 232.607 176.458 232.923 Q 176.32 233.239 176.101 233.466 Q 175.883 233.692 175.64 233.676 Q 175.235 233.644 174.498 233.628 Q 173.761 233.611 172.951 233.611 L 172.432 233.611 Q 172.4 233.968 172.375 234.316 Q 172.351 234.664 172.351 234.956 Q 172.351 235.523 172.465 235.952 Q 172.578 236.382 172.902 236.689 Q 173.113 236.9 173.113 237.175 Q 173.113 237.532 172.708 237.823 Q 172.303 238.115 171.671 238.115 Z" transform="matrix(12.071656, 0.115511, -0.193917, 20.534378, -1735.275146, -4576.300293)" style="fill: url(#pattern-0-1); stroke-linecap: round; stroke-linejoin: round; stroke-width: 1.86857px; white-space: pre;"/>
  <path d="M 171.671 238.115 Q 171.476 238.115 171.274 238.05 Q 171.071 237.985 170.934 237.742 Q 170.796 237.499 170.796 236.997 Q 170.796 236.673 170.861 236.147 Q 170.926 235.62 171.039 234.778 Q 171.12 234.243 171.225 233.344 Q 171.331 232.445 171.331 231.457 Q 171.331 231.019 171.298 230.525 Q 171.266 230.031 171.169 229.626 Q 170.974 229.675 170.877 229.675 Q 170.78 229.675 170.731 229.618 Q 170.683 229.561 170.683 229.399 Q 170.683 229.075 170.755 228.743 Q 170.828 228.411 170.99 228.184 Q 171.152 227.958 171.371 227.86 Q 171.59 227.763 171.833 227.731 Q 172.238 227.682 172.861 227.642 Q 173.485 227.601 174.174 227.569 Q 174.862 227.536 175.429 227.536 Q 176.191 227.536 176.555 227.553 Q 176.92 227.569 177.114 227.601 Q 177.535 227.666 177.535 228.055 Q 177.535 228.33 177.43 228.549 Q 177.325 228.768 177.179 228.946 Q 177.001 229.205 176.798 229.31 Q 176.596 229.416 176.272 229.383 Q 175.996 229.351 175.518 229.327 Q 175.04 229.302 174.425 229.302 Q 174.166 229.302 173.744 229.318 Q 173.323 229.335 172.853 229.367 Q 172.837 229.918 172.756 230.623 Q 172.675 231.327 172.578 232.056 Q 173.015 232.024 173.631 232 Q 174.247 231.975 174.895 231.959 Q 175.543 231.943 176.045 231.943 Q 176.336 231.943 176.466 232.016 Q 176.596 232.089 176.596 232.332 Q 176.596 232.607 176.458 232.923 Q 176.32 233.239 176.101 233.466 Q 175.883 233.692 175.64 233.676 Q 175.235 233.644 174.498 233.628 Q 173.761 233.611 172.951 233.611 L 172.432 233.611 Q 172.4 233.968 172.375 234.316 Q 172.351 234.664 172.351 234.956 Q 172.351 235.523 172.465 235.952 Q 172.578 236.382 172.902 236.689 Q 173.113 236.9 173.113 237.175 Q 173.113 237.532 172.708 237.823 Q 172.303 238.115 171.671 238.115 Z" transform="matrix(12.071656, 0.115511, -0.193917, 20.534378, -1941.43103, -4562.683105)" style="fill: url(#pattern-0-2); stroke-linecap: round; stroke-linejoin: round; stroke-width: 1.86857px; white-space: pre;"/>
</svg>